<?xml version="1.0" standalone="no"?><!DOCTYPE svg PUBLIC "-//W3C//DTD SVG 1.1//EN" "http://www.w3.org/Graphics/SVG/1.1/DTD/svg11.dtd"><svg t="1498104403747" class="icon" style="" viewBox="0 0 1024 1024" version="1.1" xmlns="http://www.w3.org/2000/svg" p-id="5448" xmlns:xlink="http://www.w3.org/1999/xlink" width="200" height="200"><defs><style type="text/css"></style></defs><path d="M507.117 10.179c-277.375 3.707-499.28 231.598-495.574 509.020 3.708 277.232 231.615 499.188 508.991 495.457 277.377-3.708 499.282-231.597 495.574-509.020-3.659-277.278-231.617-499.164-508.991-495.457zM562.802 177.582c51.046 0 66.113 29.586 66.113 63.477 0 42.333-33.916 81.463-91.732 81.463-48.366 0-71.376-24.348-70.014-64.531 0.023-33.891 28.418-80.411 95.634-80.411zM431.865 826.353c-34.899 0-60.446-21.193-36.048-114.329l40.018-165.103c6.937-26.476 8.085-37.072 0-37.072-10.429 0-55.758 18.294-82.546 36.306l-17.415-28.558c84.917-70.87 182.532-112.463 224.369-112.463 34.877 0 40.665 41.283 23.249 104.759l-45.854 173.618c-8.086 30.689-4.593 41.284 3.492 41.284 10.429 0 44.779-12.676 78.505-39.201l19.71 26.477c-82.498 82.493-172.531 114.281-207.478 114.281z" fill="#707070" p-id="5449"></path></svg>