<?xml version="1.0" standalone="no"?><!DOCTYPE svg PUBLIC "-//W3C//DTD SVG 1.1//EN" "http://www.w3.org/Graphics/SVG/1.1/DTD/svg11.dtd"><svg t="1498285711956" class="icon" style="" viewBox="0 0 1025 1024" version="1.1" xmlns="http://www.w3.org/2000/svg" p-id="9191" xmlns:xlink="http://www.w3.org/1999/xlink" width="32.03125" height="32"><defs><style type="text/css"></style></defs><path d="M242.7 189.9l257.5 0c51 0 89 2.1 114 6.4 25 4.3 47.5 13.1 67.2 26.6 19.8 13.5 36.3 31.4 49.4 53.8s19.8 47.5 19.8 75.4c0 30.2-8.1 57.9-24.4 83.1-16.3 25.2-38.3 44.1-66.1 56.7 39.3 11.4 69.4 30.9 90.5 58.4 21.1 27.5 31.6 59.9 31.6 97.1 0 29.3-6.8 57.8-20.4 85.5s-32.2 49.8-55.8 66.4c-23.6 16.6-52.7 26.7-87.2 30.5-21.7 2.3-74 3.8-156.9 4.4L242.7 834.2 242.7 189.9zM372.8 297.1l0 149L458 446.1c50.7 0 82.2-0.7 94.5-2.2 22.3-2.6 39.8-10.3 52.5-23.1s19.1-29.5 19.1-50.3c0-19.9-5.5-36.1-16.5-48.6-11-12.4-27.3-20-49-22.6-12.9-1.5-50-2.2-111.2-2.2L372.8 297.1zM372.8 553.3l0 172.3 120.4 0c46.9 0 76.6-1.3 89.2-4 19.3-3.5 35.1-12.1 47.2-25.7 12.2-13.6 18.2-31.9 18.2-54.7 0-19.3-4.7-35.7-14.1-49.2-9.4-13.5-22.9-23.3-40.6-29.4-17.7-6.2-56.2-9.2-115.4-9.2L372.8 553.4z" p-id="9192" fill="#707070"></path></svg>