<?xml version="1.0" standalone="no"?><!DOCTYPE svg PUBLIC "-//W3C//DTD SVG 1.1//EN" "http://www.w3.org/Graphics/SVG/1.1/DTD/svg11.dtd"><svg t="1498104354579" class="icon" style="" viewBox="0 0 1024 1024" version="1.1" xmlns="http://www.w3.org/2000/svg" p-id="4627" xmlns:xlink="http://www.w3.org/1999/xlink" width="200" height="200"><defs><style type="text/css"></style></defs><path d="M807.276027 688.221514c30.693046-52.757574 86.871533-80.46666 139.874701-74.193793 7.754614-32.979112 11.863189-67.363224 11.863189-102.70822 0-31.18014-3.196809-61.612243-9.272177-90.992387-53.671387 7.099698-110.872157-20.86726-141.772934-74.480318-31.399127-54.475705-26.275433-119.175263 8.236592-162.065096-47.402613-44.045145-104.381325-77.921697-167.466106-98.168834-19.569708 51.91744-73.39459 89.211834-136.739291 89.211834-63.3447 0-117.170606-37.295418-136.739291-89.211834-62.492286 20.056801-118.989021 53.492308-166.123528 96.934726 34.343179 43.029002 39.206954 107.752096 7.586792 162.103982-31.120788 53.493332-88.444355 81.229023-142.091182 73.904197-6.315846 29.927613-9.646708 60.956304-9.646708 92.76373 0 34.716686 3.958148 68.509327 11.446703 100.95018 53.035914-6.071276 109.11514 21.866007 139.599432 74.755588 29.955242 51.972699 26.674523 113.254414-3.659343 156.021449 47.441499 42.877553 104.121406 75.726705 166.69965 95.189989 22.135136-47.161113 73.316819-80.190367 132.927475-80.190367 59.610656 0 110.792339 33.029254 132.927475 80.190367 61.994959-19.282159 118.198006-51.701522 165.368328-93.993744C780.143063 801.355177 777.113053 740.067322 807.276027 688.221514zM512 705.689351c-107.346867 0-194.368826-87.021959-194.368826-194.368826s87.021959-194.368826 194.368826-194.368826c107.346867 0 194.368826 87.021959 194.368826 194.368826S619.346867 705.689351 512 705.689351z" p-id="4628" fill="#707070"></path></svg>