<?xml version="1.0" standalone="no"?><!DOCTYPE svg PUBLIC "-//W3C//DTD SVG 1.1//EN" "http://www.w3.org/Graphics/SVG/1.1/DTD/svg11.dtd"><svg t="1498618796631" class="icon" style="" viewBox="0 0 1024 1024" version="1.1" xmlns="http://www.w3.org/2000/svg" p-id="6658" xmlns:xlink="http://www.w3.org/1999/xlink" width="32" height="32"><defs><style type="text/css"></style></defs><path d="M849.240405 177.3568a33.792 33.792 0 0 0-47.786666 0L235.523072 774.894933 57.927339 597.333333a33.792 33.792 0 1 0-47.786667 47.786667l201.3184 201.284267 0.136533 0.2048a33.450667 33.450667 0 0 0 23.893334 9.898666 33.5872 33.5872 0 0 0 23.927466-9.898666l0.1024-0.170667L849.240405 225.1776a33.792 33.792 0 0 0 0-47.8208zM721.445205 434.0736h267.605334a35.157333 35.157333 0 1 0 0-70.382933h-194.286934l-73.3184 70.382933zM989.050539 574.907733H625.701205l-73.250133 70.417067h436.599467a35.2256 35.2256 0 0 0 0-70.417067zM989.050539 786.090667H456.741205l-73.250133 70.417066h605.559467a35.2256 35.2256 0 0 0 0-70.417066z" fill="#ffffff" p-id="6659"></path></svg>