<?xml version="1.0" standalone="no"?><!DOCTYPE svg PUBLIC "-//W3C//DTD SVG 1.1//EN" "http://www.w3.org/Graphics/SVG/1.1/DTD/svg11.dtd"><svg t="1498197903790" class="icon" style="" viewBox="0 0 1024 1024" version="1.1" xmlns="http://www.w3.org/2000/svg" p-id="3057" xmlns:xlink="http://www.w3.org/1999/xlink" width="64" height="64"><defs><style type="text/css"></style></defs><path d="M21.333333 0 21.333333 1024 21.333333 0Z" p-id="3058" fill="#80bd01"></path><path d="M42.666667 0 42.666667 1024 42.666667 0Z" p-id="3059" fill="#80bd01"></path><path d="M64 0 64 1024 64 0Z" p-id="3060" fill="#80bd01"></path><path d="M85.333333 0 85.333333 1024 85.333333 0Z" p-id="3061" fill="#80bd01"></path><path d="M106.666667 0 106.666667 1024 106.666667 0Z" p-id="3062" fill="#80bd01"></path><path d="M128 0 128 1024 128 0Z" p-id="3063" fill="#80bd01"></path><path d="M149.333333 0 149.333333 1024 149.333333 0Z" p-id="3064" fill="#80bd01"></path><path d="M170.666667 0 170.666667 1024 170.666667 0Z" p-id="3065" fill="#80bd01"></path><path d="M192 0 192 1024 192 0Z" p-id="3066" fill="#80bd01"></path><path d="M213.333333 0 213.333333 1024 213.333333 0Z" p-id="3067" fill="#80bd01"></path><path d="M234.666667 0 234.666667 1024 234.666667 0Z" p-id="3068" fill="#80bd01"></path><path d="M256 0 256 1024 256 0Z" p-id="3069" fill="#80bd01"></path><path d="M277.333333 0 277.333333 1024 277.333333 0Z" p-id="3070" fill="#80bd01"></path><path d="M298.666667 0 298.666667 1024 298.666667 0Z" p-id="3071" fill="#80bd01"></path><path d="M320 0 320 1024 320 0Z" p-id="3072" fill="#80bd01"></path><path d="M341.333333 0 341.333333 1024 341.333333 0Z" p-id="3073" fill="#80bd01"></path><path d="M362.666667 0 362.666667 1024 362.666667 0Z" p-id="3074" fill="#80bd01"></path><path d="M384 0 384 1024 384 0Z" p-id="3075" fill="#80bd01"></path><path d="M405.333333 0 405.333333 1024 405.333333 0Z" p-id="3076" fill="#80bd01"></path><path d="M426.666667 0 426.666667 1024 426.666667 0Z" p-id="3077" fill="#80bd01"></path><path d="M448 0 448 1024 448 0Z" p-id="3078" fill="#80bd01"></path><path d="M469.333333 0 469.333333 1024 469.333333 0Z" p-id="3079" fill="#80bd01"></path><path d="M490.666667 0 490.666667 1024 490.666667 0Z" p-id="3080" fill="#80bd01"></path><path d="M512 0 512 1024 512 0Z" p-id="3081" fill="#80bd01"></path><path d="M533.333333 0 533.333333 1024 533.333333 0Z" p-id="3082" fill="#80bd01"></path><path d="M554.666667 0 554.666667 1024 554.666667 0Z" p-id="3083" fill="#80bd01"></path><path d="M576 0 576 1024 576 0Z" p-id="3084" fill="#80bd01"></path><path d="M597.333333 0 597.333333 1024 597.333333 0Z" p-id="3085" fill="#80bd01"></path><path d="M618.666667 0 618.666667 1024 618.666667 0Z" p-id="3086" fill="#80bd01"></path><path d="M640 0 640 1024 640 0Z" p-id="3087" fill="#80bd01"></path><path d="M661.333333 0 661.333333 1024 661.333333 0Z" p-id="3088" fill="#80bd01"></path><path d="M682.666667 0 682.666667 1024 682.666667 0Z" p-id="3089" fill="#80bd01"></path><path d="M704 0 704 1024 704 0Z" p-id="3090" fill="#80bd01"></path><path d="M725.333333 0 725.333333 1024 725.333333 0Z" p-id="3091" fill="#80bd01"></path><path d="M746.666667 0 746.666667 1024 746.666667 0Z" p-id="3092" fill="#80bd01"></path><path d="M768 0 768 1024 768 0Z" p-id="3093" fill="#80bd01"></path><path d="M789.333333 0 789.333333 1024 789.333333 0Z" p-id="3094" fill="#80bd01"></path><path d="M810.666667 0 810.666667 1024 810.666667 0Z" p-id="3095" fill="#80bd01"></path><path d="M832 0 832 1024 832 0Z" p-id="3096" fill="#80bd01"></path><path d="M853.333333 0 853.333333 1024 853.333333 0Z" p-id="3097" fill="#80bd01"></path><path d="M874.666667 0 874.666667 1024 874.666667 0Z" p-id="3098" fill="#80bd01"></path><path d="M896 0 896 1024 896 0Z" p-id="3099" fill="#80bd01"></path><path d="M917.333333 0 917.333333 1024 917.333333 0Z" p-id="3100" fill="#80bd01"></path><path d="M938.666667 0 938.666667 1024 938.666667 0Z" p-id="3101" fill="#80bd01"></path><path d="M960 0 960 1024 960 0Z" p-id="3102" fill="#80bd01"></path><path d="M981.333333 0 981.333333 1024 981.333333 0Z" p-id="3103" fill="#80bd01"></path><path d="M1002.666667 0 1002.666667 1024 1002.666667 0Z" p-id="3104" fill="#80bd01"></path><path d="M0 21.333333 1024 21.333333 0 21.333333Z" p-id="3105" fill="#80bd01"></path><path d="M0 42.666667 1024 42.666667 0 42.666667Z" p-id="3106" fill="#80bd01"></path><path d="M0 64 1024 64 0 64Z" p-id="3107" fill="#80bd01"></path><path d="M0 85.333333 1024 85.333333 0 85.333333Z" p-id="3108" fill="#80bd01"></path><path d="M0 106.666667 1024 106.666667 0 106.666667Z" p-id="3109" fill="#80bd01"></path><path d="M0 128 1024 128 0 128Z" p-id="3110" fill="#80bd01"></path><path d="M0 149.333333 1024 149.333333 0 149.333333Z" p-id="3111" fill="#80bd01"></path><path d="M0 170.666667 1024 170.666667 0 170.666667Z" p-id="3112" fill="#80bd01"></path><path d="M0 192 1024 192 0 192Z" p-id="3113" fill="#80bd01"></path><path d="M0 213.333333 1024 213.333333 0 213.333333Z" p-id="3114" fill="#80bd01"></path><path d="M0 234.666667 1024 234.666667 0 234.666667Z" p-id="3115" fill="#80bd01"></path><path d="M0 256 1024 256 0 256Z" p-id="3116" fill="#80bd01"></path><path d="M0 277.333333 1024 277.333333 0 277.333333Z" p-id="3117" fill="#80bd01"></path><path d="M0 298.666667 1024 298.666667 0 298.666667Z" p-id="3118" fill="#80bd01"></path><path d="M0 320 1024 320 0 320Z" p-id="3119" fill="#80bd01"></path><path d="M0 341.333333 1024 341.333333 0 341.333333Z" p-id="3120" fill="#80bd01"></path><path d="M0 362.666667 1024 362.666667 0 362.666667Z" p-id="3121" fill="#80bd01"></path><path d="M0 384 1024 384 0 384Z" p-id="3122" fill="#80bd01"></path><path d="M0 405.333333 1024 405.333333 0 405.333333Z" p-id="3123" fill="#80bd01"></path><path d="M0 426.666667 1024 426.666667 0 426.666667Z" p-id="3124" fill="#80bd01"></path><path d="M0 448 1024 448 0 448Z" p-id="3125" fill="#80bd01"></path><path d="M0 469.333333 1024 469.333333 0 469.333333Z" p-id="3126" fill="#80bd01"></path><path d="M0 490.666667 1024 490.666667 0 490.666667Z" p-id="3127" fill="#80bd01"></path><path d="M0 512 1024 512 0 512Z" p-id="3128" fill="#80bd01"></path><path d="M0 533.333333 1024 533.333333 0 533.333333Z" p-id="3129" fill="#80bd01"></path><path d="M0 554.666667 1024 554.666667 0 554.666667Z" p-id="3130" fill="#80bd01"></path><path d="M0 576 1024 576 0 576Z" p-id="3131" fill="#80bd01"></path><path d="M0 597.333333 1024 597.333333 0 597.333333Z" p-id="3132" fill="#80bd01"></path><path d="M0 618.666667 1024 618.666667 0 618.666667Z" p-id="3133" fill="#80bd01"></path><path d="M0 640 1024 640 0 640Z" p-id="3134" fill="#80bd01"></path><path d="M0 661.333333 1024 661.333333 0 661.333333Z" p-id="3135" fill="#80bd01"></path><path d="M0 682.666667 1024 682.666667 0 682.666667Z" p-id="3136" fill="#80bd01"></path><path d="M0 704 1024 704 0 704Z" p-id="3137" fill="#80bd01"></path><path d="M0 725.333333 1024 725.333333 0 725.333333Z" p-id="3138" fill="#80bd01"></path><path d="M0 746.666667 1024 746.666667 0 746.666667Z" p-id="3139" fill="#80bd01"></path><path d="M0 768 1024 768 0 768Z" p-id="3140" fill="#80bd01"></path><path d="M0 789.333333 1024 789.333333 0 789.333333Z" p-id="3141" fill="#80bd01"></path><path d="M0 810.666667 1024 810.666667 0 810.666667Z" p-id="3142" fill="#80bd01"></path><path d="M0 832 1024 832 0 832Z" p-id="3143" fill="#80bd01"></path><path d="M0 853.333333 1024 853.333333 0 853.333333Z" p-id="3144" fill="#80bd01"></path><path d="M0 874.666667 1024 874.666667 0 874.666667Z" p-id="3145" fill="#80bd01"></path><path d="M0 896 1024 896 0 896Z" p-id="3146" fill="#80bd01"></path><path d="M0 917.333333 1024 917.333333 0 917.333333Z" p-id="3147" fill="#80bd01"></path><path d="M0 938.666667 1024 938.666667 0 938.666667Z" p-id="3148" fill="#80bd01"></path><path d="M0 960 1024 960 0 960Z" p-id="3149" fill="#80bd01"></path><path d="M0 981.333333 1024 981.333333 0 981.333333Z" p-id="3150" fill="#80bd01"></path><path d="M0 1002.666667 1024 1002.666667 0 1002.666667Z" p-id="3151" fill="#80bd01"></path><path d="M753.333333 85.333333q69.666667 0 128.5 34.333333t93.166667 93.166667 34.333333 128.5q0 50-19.166667 97.166667t-55.833333 83.833333l-422.333333 422.333333-422.333333-422.333333q-36.666667-36.666667-55.833333-83.833333t-19.166667-97.166667q0-69.666667 34.333333-128.5t93.166667-93.166667 128.5-34.333333q50.333333 0 97.166667 19t83.833333 56l60.333333 60.333333 60.333333-60.333333q36.666667-36.666667 83.833333-55.833333t97.166667-19.166667zM753.333333 170.666667q-33.333333 0-64.666667 12.666667t-56 37.333333l-120.666667 120.666667-120.666667-120.666667q-24.666667-24.666667-56-37.333333t-64.666667-12.666667q-46.666667 0-85.833333 22.833333t-62 62-22.833333 85.833333q0 33.333333 12.666667 64.666667t37.333333 56l362 362 362-362q24.666667-24.666667 37.333333-56t12.666667-64.666667q0-46.666667-22.833333-85.833333t-62-62-85.833333-22.833333z" p-id="3152" fill="#80bd01"></path></svg>