<?xml version="1.0" standalone="no"?><!DOCTYPE svg PUBLIC "-//W3C//DTD SVG 1.1//EN" "http://www.w3.org/Graphics/SVG/1.1/DTD/svg11.dtd"><svg t="1498277962359" class="icon" style="" viewBox="0 0 1393 1024" version="1.1" xmlns="http://www.w3.org/2000/svg" p-id="7205" xmlns:xlink="http://www.w3.org/1999/xlink" width="43.53125" height="32"><defs><style type="text/css"></style></defs><path d="M1310.72 1024 81.92 1024C36.67968 1024 0 987.32032 0 942.08L0 81.92C0 36.67968 36.67968 0 81.92 0L1310.72 0C1355.96032 0 1392.64 36.67968 1392.64 81.92L1392.64 942.08C1392.64 987.32032 1355.96032 1024 1310.72 1024ZM1034.24 184.32C983.3472 184.32 942.08 225.5872 942.08 276.48 942.08 327.3728 983.3472 368.64 1034.24 368.64 1085.1328 368.64 1126.4 327.3728 1126.4 276.48 1126.4 225.5872 1085.1328 184.32 1034.24 184.32ZM921.6 512 819.2 675.84 593.92 245.76 266.24 839.68 1126.4 839.68 921.6 512Z" p-id="7206" fill="#707070"></path></svg>