<?xml version="1.0" standalone="no"?><!DOCTYPE svg PUBLIC "-//W3C//DTD SVG 1.1//EN" "http://www.w3.org/Graphics/SVG/1.1/DTD/svg11.dtd"><svg t="1498277869786" class="icon" style="" viewBox="0 0 1024 1024" version="1.1" xmlns="http://www.w3.org/2000/svg" p-id="5001" xmlns:xlink="http://www.w3.org/1999/xlink" width="32" height="32"><defs><style type="text/css"></style></defs><path d="M219.428571 804.571429q0 45.714286-32 77.714285t-77.714285 32-77.714286-32-32-77.714285 32-77.714286 77.714286-32 77.714285 32 32 77.714286z m0-292.571429q0 45.714286-32 77.714286t-77.714285 32-77.714286-32T0 512t32-77.714286 77.714286-32 77.714285 32 32 77.714286z m804.571429 237.714286v109.714285q0 7.428571-5.428571 12.857143t-12.857143 5.428572H310.857143q-7.428571 0-12.857143-5.428572T292.571429 859.428571v-109.714285q0-7.428571 5.428571-12.857143t12.857143-5.428572h694.857143q7.428571 0 12.857143 5.428572t5.428571 12.857143zM219.428571 219.428571q0 45.714286-32 77.714286t-77.714285 32-77.714286-32T0 219.428571t32-77.714285 77.714286-32 77.714285 32 32 77.714285z m804.571429 237.714286v109.714286q0 7.428571-5.428571 12.857143t-12.857143 5.428571H310.857143q-7.428571 0-12.857143-5.428571T292.571429 566.857143V457.142857q0-7.428571 5.428571-12.857143T310.857143 438.857143h694.857143q7.428571 0 12.857143 5.428571t5.428571 12.857143z m0-292.571428v109.714285q0 7.428571-5.428571 12.857143T1005.714286 292.571429H310.857143q-7.428571 0-12.857143-5.428572T292.571429 274.285714V164.571429q0-7.428571 5.428571-12.857143T310.857143 146.285714h694.857143q7.428571 0 12.857143 5.428572t5.428571 12.857143z" p-id="5002" fill="#707070"></path></svg>