<?xml version="1.0" standalone="no"?><!DOCTYPE svg PUBLIC "-//W3C//DTD SVG 1.1//EN" "http://www.w3.org/Graphics/SVG/1.1/DTD/svg11.dtd"><svg t="1498277833854" class="icon" style="" viewBox="0 0 1024 1024" version="1.1" xmlns="http://www.w3.org/2000/svg" p-id="4287" xmlns:xlink="http://www.w3.org/1999/xlink" width="32" height="32"><defs><style type="text/css"></style></defs><path d="M217.714286 925.714286q0 45.714286-31.142857 72T109.142857 1024q-60.571429 0-98.285714-37.714286l32.571428-50.285714q28 25.714286 60.571429 25.714286 16.571429 0 28.857143-8.285715T145.142857 929.142857q0-36.571429-60-32l-14.857143-32q4.571429-5.714286 18.571429-24.857143t24.285714-30.857143 21.142857-22v-0.571428q-9.142857 0-27.714285 0.571428t-27.714286 0.571429v30.285714H18.285714v-86.857143h190.285715v50.285715l-54.285715 65.714285q29.142857 6.857143 46.285715 28t17.142857 50.285715z m1.142857-358.285715v90.857143H12q-3.428571-20.571429-3.428571-30.857143 0-29.142857 13.428571-53.142857T54.285714 535.428571t37.714286-27.142857 32.285714-24.857143 13.428572-25.714285q0-14.285714-8.285715-22T106.857143 428q-26.285714 0-46.285714 33.142857l-48.571429-33.714286q13.714286-29.142857 40.857143-45.428571T113.142857 365.714286q41.714286 0 70.285714 23.714285T212 453.714286q0 28.571429-19.428571 52.285714T149.714286 542.857143t-43.142857 28.857143T86.285714 601.714286h72.571429v-34.285715h60z m805.142857 182.285715v109.714285q0 7.428571-5.428571 12.857143t-12.857143 5.428572H310.857143q-7.428571 0-12.857143-5.428572T292.571429 859.428571v-109.714285q0-8 5.142857-13.142857t13.142857-5.142858h694.857143q7.428571 0 12.857143 5.428572t5.428571 12.857143zM219.428571 236v56.571429H28v-56.571429h61.142857q0-23.428571 0.285714-69.714286t0.285715-69.142857v-6.857143h-1.142857q-4.571429 9.714286-28.571429 30.857143l-40.571429-43.428571L97.142857 5.142857h60.571429v230.857143h61.714285z m804.571429 221.142857v109.714286q0 7.428571-5.428571 12.857143t-12.857143 5.428571H310.857143q-7.428571 0-12.857143-5.428571T292.571429 566.857143V457.142857q0-8 5.142857-13.142857t13.142857-5.142857h694.857143q7.428571 0 12.857143 5.428571t5.428571 12.857143z m0-292.571428v109.714285q0 7.428571-5.428571 12.857143T1005.714286 292.571429H310.857143q-7.428571 0-12.857143-5.428572T292.571429 274.285714V164.571429q0-7.428571 5.428571-12.857143T310.857143 146.285714h694.857143q7.428571 0 12.857143 5.428572t5.428571 12.857143z" fill="#707070" p-id="4288"></path></svg>