<?xml version="1.0" standalone="no"?><!DOCTYPE svg PUBLIC "-//W3C//DTD SVG 1.1//EN" "http://www.w3.org/Graphics/SVG/1.1/DTD/svg11.dtd"><svg t="1498273908145" class="icon" style="" viewBox="0 0 1024 1024" version="1.1" xmlns="http://www.w3.org/2000/svg" p-id="3759" xmlns:xlink="http://www.w3.org/1999/xlink" width="64" height="64"><defs><style type="text/css"></style></defs><path d="M970.658909 803.560727c-5.399273 113.198545-98.955636 203.636364-213.131636 203.636364l-3.863273 0L257.303273 1007.197091 253.44 1007.197091c-114.176 0-207.778909-90.437818-213.178182-203.636364L40.029091 803.560727l0-10.379636L40.029091 245.573818 40.029091 243.758545 40.029091 233.425455l0.232727 0c5.399273-113.245091 99.002182-203.682909 213.178182-203.682909l394.100364 0L647.540364 29.789091l30.301091 0-92.020364 77.777455-23.179636 0-45.474909 0L417.931636 107.566545 253.44 107.566545c-74.845091 0-135.819636 61.114182-135.819636 136.192l0 26.158545 0 2.001455 0 136.843636 0 353.512727 0 0.279273 0 30.626909c0 75.077818 60.974545 136.192 135.819636 136.192l164.491636 0 0 0 175.104 0 0 0 164.491636 0c74.845091 0 135.819636-61.114182 135.819636-136.192l0-28.16 0-0.837818 0-136.005818L893.346909 408.669091l77.591273-76.474182 0 460.986182 0 10.379636L970.658909 803.560727zM702.696727 461.963636l-56.273455 59.392c-18.664727 19.083636-65.908364 66.978909-80.849455 82.804364-14.987636 15.918545-27.415273 28.997818-37.236364 39.284364s-15.732364 16.197818-17.547636 17.640727c-4.747636 4.375273-10.100364 8.983273-16.197818 13.917091-6.050909 4.887273-12.381091 8.797091-18.944 11.729455-6.562909 3.444364-16.151273 7.540364-28.811636 12.567273-12.660364 4.887273-25.879273 9.634909-39.749818 14.289455-13.824 4.654545-26.949818 8.657455-39.330909 12.101818-12.427636 3.351273-21.690182 5.632-27.787636 6.656-12.613818 1.442909-21.038545-0.558545-25.274182-5.911273-4.235636-5.352727-5.399273-14.475636-3.537455-27.089455 0.977455-6.888727 3.165091-16.802909 6.702545-29.742545 3.490909-12.986182 7.261091-26.437818 11.217455-40.354909 4.002909-13.917091 7.866182-26.810182 11.589818-38.539636 3.770182-11.729455 6.795636-19.828364 9.169455-24.203636 2.792727-6.795636 5.957818-13.079273 9.495273-18.711273 3.490909-5.632 8.517818-11.869091 15.080727-18.711273 2.792727-2.932364 9.355636-9.914182 19.688727-20.898909 10.286545-11.031273 53.480727-54.970182 68.933818-71.121455l51.293091-53.573818 56.971636-59.392 145.594182-152.110545 132.561455 134.469818L702.696727 461.963636zM940.404364 211.409455c-6.981818 7.307636-13.265455 13.684364-18.804364 19.176727s-10.379636 10.379636-14.475636 14.615273c-4.654545 4.887273-8.983273 9.169455-13.079273 12.8l-131.909818-134.423273c7.028364-6.702545 15.313455-14.754909 24.948364-24.203636s17.687273-16.896 24.064-22.388364c8.238545-6.702545 16.663273-11.403636 25.460364-14.149818 8.005818-2.513455 15.872-3.723636 23.645091-3.677091 0.698182 0 1.442909 0 2.141091 0 4.282182 0.186182 8.517818 0.605091 12.613818 1.303273-0.093091-0.046545-0.279273 0-0.372364-0.046545 0.093091 0 0.279273 0 0.372364 0.046545 17.733818 3.304727 36.305455 12.846545 52.084364 28.113455C935.842909 97.093818 942.964364 106.589091 948.130909 116.363636c7.633455 14.429091 11.264 29.509818 10.565818 43.287273 0 1.675636 0.139636 3.397818 0.139636 5.12 0 7.959273-1.489455 15.872-4.421818 23.784727S946.781091 204.101818 940.404364 211.409455z" p-id="3760" fill="#ffffff"></path></svg>