<?xml version="1.0" standalone="no"?><!DOCTYPE svg PUBLIC "-//W3C//DTD SVG 1.1//EN" "http://www.w3.org/Graphics/SVG/1.1/DTD/svg11.dtd"><svg t="1498615828965" class="icon" style="" viewBox="0 0 1024 1024" version="1.1" xmlns="http://www.w3.org/2000/svg" p-id="4850" xmlns:xlink="http://www.w3.org/1999/xlink" width="32" height="32"><defs><style type="text/css"></style></defs><path d="M955.9 81c-5.1-9-14.2-15-24.4-16.1-1-0.1-9.9-1-25-1-28.3 0-86.1 3.3-154.7 25.2-82.2 26.3-156.2 71.1-219.9 133.3-177.8 173.4-215.2 383.9-240 523.1l-1.4 8c-2.8 15.7 6.5 31.1 21.8 35.9 3.2 1 6.4 1.5 9.6 1.5 12.1 0 23.5-6.9 28.9-18.4 32.6-70.3 53.2-84 74.9-98.5 7.2-4.8 23.7-10.4 42.8-16.9 38.3-13 96.3-32.7 164.3-74.3 88.3-54.1 164-149.5 202-214.8 5.2-8.9 5.7-19.7 1.5-29s-12.8-16-22.9-18h-33.7c56.4-28.1 64.5-28.6 95.8-38.9 9.8-3.2 17.4-11 20.5-20.8 20-64.7 60.5-150.2 60.9-151 4.5-9.3 4.1-20.2-1-29.3zM837.2 230c-85 31-154.4 84.6-187.5 125 65 10.8 102.4 22 102.4 22-34.8 49.5-90.8 114.9-155.7 154.6-62 37.9-113.7 55.5-151.5 68.3-24.3 8.2-43.4 14.7-57.6 24.2-3.2 2.2-6.4 4.3-9.6 6.6 8.6-34.8 19.2-71.1 33-107.8 37.4-99.3 90.6-181.7 162.6-251.9 56.6-55.2 122.1-94.9 194.8-118.2 42.8-13.7 80.5-19.1 107.6-21.1-12 27.7-27 64.2-38.5 98.3z" p-id="4851" fill="#80bd01"></path><path d="M860 540c-19.9 0-36 16.1-36 36v312H136V200h277c19.4-0.5 35-16.4 35-36s-15.6-35.5-35-36H136c-39.8 0-72 32.2-72 72v688c0 39.8 32.2 72 72 72h688c39.8 0 72-32.2 72-72V576c0-19.9-16.1-36-36-36z" p-id="4852" fill="#80bd01"></path></svg>