<?xml version="1.0" standalone="no"?><!DOCTYPE svg PUBLIC "-//W3C//DTD SVG 1.1//EN" "http://www.w3.org/Graphics/SVG/1.1/DTD/svg11.dtd"><svg t="1498017529379" class="icon" style="" viewBox="0 0 1024 1024" version="1.1" xmlns="http://www.w3.org/2000/svg" p-id="16662" xmlns:xlink="http://www.w3.org/1999/xlink" width="200" height="200"><defs><style type="text/css"></style></defs><path d="M937.235 428.09l-820.409 0c-37.776 0-68.367 30.599-68.367 68.367 0 37.76 30.591 68.365 68.367 68.365l820.409 0c37.76 0 68.368-30.604 68.368-68.365 0-37.768-30.608-68.367-68.368-68.367M116.825 291.362l820.409 0c37.76 0 68.368-30.597 68.368-68.365s-30.609-68.365-68.368-68.365l-820.409 0c-37.776 0-68.367 30.597-68.367 68.365s30.591 68.365 68.367 68.365M937.235 701.549l-820.409 0c-37.776 0-68.367 30.604-68.367 68.366 0 37.76 30.591 68.364 68.367 68.364l820.409 0c37.76 0 68.368-30.603 68.368-68.364 0-37.761-30.608-68.366-68.368-68.366z" p-id="16663" fill="#ffffff"></path></svg>