<?xml version="1.0" standalone="no"?><!DOCTYPE svg PUBLIC "-//W3C//DTD SVG 1.1//EN" "http://www.w3.org/Graphics/SVG/1.1/DTD/svg11.dtd"><svg t="1498201967296" class="icon" style="" viewBox="0 0 1024 1024" version="1.1" xmlns="http://www.w3.org/2000/svg" p-id="4095" xmlns:xlink="http://www.w3.org/1999/xlink" width="64" height="64"><defs><style type="text/css"></style></defs><path d="M178.272047 768q0-14.848-10.848-25.728t-25.728-10.848q-15.424 0-26.016 10.848t-10.56 25.728q0 15.424 10.56 26.016t26.016 10.56q14.848 0 25.728-10.56t10.848-26.016zM269.728047 475.424l0 365.728q0 14.848-10.848 25.728t-25.728 10.848l-164.576 0q-14.848 0-25.728-10.848t-10.848-25.728l0-365.728q0-14.848 10.848-25.728t25.728-10.848l164.576 0q14.848 0 25.728 10.848t10.848 25.728zM946.272047 475.424q0 49.152-31.424 85.152 8.576 25.152 8.576 43.424 1.728 43.424-24.576 78.272 9.728 32 0 66.848-8.576 32.576-30.848 53.728 5.152 64-28 103.424-36.576 43.424-112.576 44.576l-73.728 0q-37.728 0-82.272-8.864t-69.44-16.576-68.864-22.56q-70.272-24.576-90.272-25.152-14.848-0.576-25.728-11.136t-10.848-25.44l0-366.272q0-14.272 10.272-24.864t24.576-11.712q13.728-1.152 43.424-33.728t57.728-69.152q38.848-49.728 57.728-68.576 10.272-10.272 17.728-27.424t10.016-27.712 7.712-34.56q4-22.272 7.136-34.848t11.136-29.728 19.424-28.576q10.848-10.848 25.728-10.848 26.272 0 47.136 6.016t34.272 14.848 22.848 23.136 13.728 25.728 6.848 28.576 2.848 25.728 0.288 22.272q0 21.728-5.44 43.424t-10.848 34.272-15.712 32q-1.728 3.424-5.728 10.272t-6.272 12.576-4.576 13.728l158.272 0q44.576 0 77.152 32.576t32.576 77.152z" p-id="4096" fill="#707070"></path></svg>