<?xml version="1.0" standalone="no"?><!DOCTYPE svg PUBLIC "-//W3C//DTD SVG 1.1//EN" "http://www.w3.org/Graphics/SVG/1.1/DTD/svg11.dtd"><svg t="1498285913623" class="icon" style="" viewBox="0 0 1024 1024" version="1.1" xmlns="http://www.w3.org/2000/svg" p-id="10793" xmlns:xlink="http://www.w3.org/1999/xlink" width="32" height="32"><defs><style type="text/css"></style></defs><path d="M523.492 702.748l71.234 134.907c94.475-41.419 161.17-89.165 200.069-143.229 38.908-54.068 58.358-127.823 58.358-221.309v-253.846h-329.662v306.153h157.627c-2.522 36.899-14.897 68.834-37.129 95.847-22.23 27.052-62.399 54.187-120.498 81.479z" p-id="10794" fill="#707070"></path><path d="M259.761 621.269c-22.231 27.053-62.4 54.188-120.498 81.48l71.246 134.907c94.476-41.42 161.157-89.165 200.068-143.229 38.899-54.068 58.35-127.823 58.35-221.309v-253.846h-329.662v306.153h157.635c-2.53 36.898-14.907 68.833-37.139 95.846z" p-id="10795" fill="#707070"></path></svg>